<?xml version="1.0" encoding="utf-8"?>
<!-- Generator: Adobe Illustrator 22.0.0, SVG Export Plug-In . SVG Version: 6.00 Build 0)  -->
<svg version="1.1" id="Layer_1" xmlns="http://www.w3.org/2000/svg" xmlns:xlink="http://www.w3.org/1999/xlink" x="0px" y="0px"
	 viewBox="0 0 540 140" style="enable-background:new 0 0 540 140;" xml:space="preserve">
<style type="text/css">
	.st0{fill:#FC3A82;}
	.st1{fill:none;stroke:#FC3A82;stroke-miterlimit:10;stroke-dasharray:9.5422;}
</style>
<g>
	<g>
		<path class="st0" d="M44,0.5H0.4v55.3h9.7V35c0-1.1,0.9-2,2-2h32c8,0,11.7-3.7,11.7-11.7v-9.1C55.7,4.2,52,0.5,44,0.5z M39.5,23.3
			H12.1c-1.1,0-2-0.9-2-2v-9.1c0-1.1,0.9-2,2-2h27.4c4.2,0,6.6,2.4,6.6,6.6S43.6,23.3,39.5,23.3z"/>
		<path class="st0" d="M101.3,18.7c-0.5,0-1-0.2-1.4-0.6L82.2,0.5h-8.8v8.4l22.2,22.6c0.4,0.4,0.6,0.9,0.6,1.4v23h9.7V33
			c0-0.5,0.2-1,0.6-1.4l22.3-23V0.5h-8.8l-17.2,17.7C102.4,18.5,101.9,18.7,101.3,18.7z"/>
		<path class="st0" d="M146.4,12.2v32c0,8,3.7,11.7,11.7,11.7h43.6v-9.7h-34.5c-9.2,0-11.1-3.6-11.1-6.6V16.7c0-4.2,2.4-6.6,6.6-6.6
			h39.1V0.5h-43.6C150.2,0.5,146.4,4.2,146.4,12.2z"/>
		<path class="st0" d="M263.1,0.5h-31.9c-8,0-11.7,3.7-11.7,11.7v32c0,8,3.7,11.7,11.7,11.7h31.9c8,0,11.7-3.7,11.7-11.7v-32
			C274.8,4.2,271.1,0.5,263.1,0.5z M265.1,39.6c0,4.2-2.4,6.6-6.6,6.6h-22.8c-4.2,0-6.6-2.4-6.6-6.6V16.7c0-4.2,2.4-6.6,6.6-6.6
			h22.8c4.2,0,6.6,2.4,6.6,6.6V39.6z"/>
		<path class="st0" d="M303.3,0.5h-10.8v55.3h9.7V25.9c0-0.8,0.5-1.5,1.2-1.8c0.7-0.3,1.6-0.1,2.2,0.4L337,55.8h10.9V0.5h-9.7V35
			c0,0.8-0.5,1.6-1.3,1.9c-0.8,0.3-1.7,0.1-2.2-0.6L303.3,0.5z"/>
		<path class="st0" d="M454.9,0.5h-43.6v9.7h39.1c4.2,0,6.6,2.4,6.6,6.6s-2.4,6.6-6.6,6.6h-27.4c-8,0-11.7,3.7-11.7,11.7v20.8h55.3
			v-9.7h-43.6c-1.1,0-2-0.9-2-2v-4.6c0-4.2,2.4-6.6,6.6-6.6h27.4c8,0,11.7-3.7,11.7-11.7v-9.1C466.6,4.2,462.9,0.5,454.9,0.5z"/>
		<path class="st0" d="M527.9,0.5h-32c-8,0-11.7,3.7-11.7,11.7v32c0,8,3.7,11.7,11.7,11.7h32c8,0,11.7-3.7,11.7-11.7v-32
			C539.6,4.2,535.9,0.5,527.9,0.5z M529.9,39.6c0,4.2-2.4,6.6-6.6,6.6h-22.8c-4.2,0-6.6-2.4-6.6-6.6V16.7c0-4.2,2.4-6.6,6.6-6.6
			h22.8c4.2,0,6.6,2.4,6.6,6.6V39.6z"/>
	</g>
	<g>
		<path class="st0" d="M0.4,78.5v9.8c0,2.4,1.1,3.5,3.5,3.5h13.3v-2.7H6.7c-2.9,0-3.6-1.2-3.6-2.2v-7c0-1.4,0.8-2.2,2.2-2.2h11.9V75
			H3.9C1.5,75,0.4,76.1,0.4,78.5z"/>
		<path class="st0" d="M88.3,75h-9.8c-2.4,0-3.5,1.1-3.5,3.5v9.8c0,2.4,1.1,3.5,3.5,3.5h9.8c2.4,0,3.5-1.1,3.5-3.5v-9.8
			C91.8,76.1,90.7,75,88.3,75z M89.1,86.9c0,1.4-0.8,2.2-2.2,2.2h-7c-1.4,0-2.2-0.8-2.2-2.2v-7c0-1.4,0.8-2.2,2.2-2.2h7
			c1.4,0,2.2,0.8,2.2,2.2V86.9z"/>
		<path class="st0" d="M152.4,88.3V75h-2.7v16.8h16.8v-2.7h-13.3C152.7,89.1,152.4,88.7,152.4,88.3z"/>
		<path class="st0" d="M237.6,75h-9.8c-2.4,0-3.5,1.1-3.5,3.5v9.8c0,2.4,1.1,3.5,3.5,3.5h9.8c2.4,0,3.5-1.1,3.5-3.5v-9.8
			C241.1,76.1,240,75,237.6,75z M238.4,86.9c0,1.4-0.8,2.2-2.2,2.2h-7c-1.4,0-2.2-0.8-2.2-2.2v-7c0-1.4,0.8-2.2,2.2-2.2h7
			c1.4,0,2.2,0.8,2.2,2.2V86.9z"/>
		<path class="st0" d="M307.5,86.3c-0.3,0-0.6-0.2-0.7-0.4L301.9,75h-3v16.8h2.7v-7.7c0-0.3,0.2-0.6,0.5-0.7c0.3-0.1,0.7,0,0.8,0.3
			l4.4,7.3l4.1-7.3c0.2-0.3,0.5-0.4,0.8-0.4c0.3,0.1,0.6,0.4,0.6,0.7v7.7h2.7V75h-3l-4.6,10.8C308.1,86.1,307.8,86.3,307.5,86.3z"/>
		<path class="st0" d="M386.9,75h-13.3v16.8h13.3c2.4,0,3.5-1.1,3.5-3.5v-1.4c0-1.7-0.4-2.3-0.6-2.5c-0.1-0.1-0.3-0.2-0.7-0.2
			c0,0-0.1,0-0.2,0c-0.4,0-0.8-0.3-0.8-0.7c0-0.4,0.3-0.8,0.7-0.8c0.1,0,0.1,0,0.2,0c1.1-0.1,1.4-0.7,1.4-1.5v-2.8
			C390.3,76.1,389.3,75,386.9,75z M385.5,89.1H377c-0.4,0-0.8-0.3-0.8-0.8v-2.8c0-0.4,0.3-0.8,0.8-0.8h8.4c1.4,0,2.2,0.8,2.2,2.2
			S386.8,89.1,385.5,89.1z M385.5,82.1H377c-0.4,0-0.8-0.3-0.8-0.8v-2.8c0-0.4,0.3-0.8,0.8-0.8h8.4c1.4,0,2.2,0.8,2.2,2.2
			S386.8,82.1,385.5,82.1z"/>
		<path class="st0" d="M455.2,78.5v9.8c0,0.4-0.3,0.8-0.8,0.8h-6.3v2.7H465v-2.7h-6.3c-0.4,0-0.8-0.3-0.8-0.8v-9.8
			c0-0.4,0.3-0.8,0.8-0.8h6.3V75h-16.8v2.7h6.3C454.9,77.7,455.2,78.1,455.2,78.5z"/>
		<path class="st0" d="M536.1,75h-9.8c-2.4,0-3.5,1.1-3.5,3.5v13.3h2.7v-4.9c0-0.4,0.3-0.8,0.8-0.8h9.8c0.4,0,0.8,0.3,0.8,0.8v4.9
			h2.7V78.5C539.6,76.1,538.5,75,536.1,75z M536.9,82.7c0,0.4-0.3,0.8-0.8,0.8h-9.8c-0.4,0-0.8-0.3-0.8-0.8v-2.8
			c0-1.4,0.8-2.2,2.2-2.2h7c1.4,0,2.2,0.8,2.2,2.2V82.7z"/>
	</g>
	<g>
		<path class="st0" d="M100.4,135.9c-1,0-2-0.2-2.8-0.5c-0.8-0.3-1.6-0.8-2.2-1.5c-0.6-0.6-1.1-1.4-1.4-2.4c-0.3-0.9-0.5-2-0.5-3.2
			s0.2-2.3,0.6-3.2c0.4-0.9,0.9-1.7,1.5-2.4c0.6-0.6,1.4-1.1,2.2-1.5c0.8-0.3,1.7-0.5,2.7-0.5c0.6,0,1.1,0,1.6,0.1
			c0.5,0.1,0.9,0.2,1.3,0.3c0.4,0.1,0.6,0.2,0.9,0.3s0.4,0.2,0.5,0.3l-0.6,1.7c-0.1-0.1-0.3-0.2-0.5-0.3c-0.2-0.1-0.5-0.2-0.8-0.3
			c-0.3-0.1-0.6-0.2-1-0.2c-0.4-0.1-0.7-0.1-1.1-0.1c-0.8,0-1.5,0.1-2.1,0.4c-0.6,0.3-1.1,0.7-1.6,1.2c-0.4,0.5-0.8,1.1-1,1.8
			c-0.2,0.7-0.3,1.5-0.3,2.4c0,0.9,0.1,1.7,0.3,2.4s0.5,1.3,0.9,1.8s0.9,0.9,1.5,1.2c0.6,0.3,1.3,0.4,2.1,0.4c0.9,0,1.7-0.1,2.3-0.3
			s1.1-0.4,1.4-0.5l0.5,1.7c-0.1,0.1-0.3,0.2-0.5,0.3c-0.3,0.1-0.6,0.2-0.9,0.3s-0.8,0.2-1.3,0.3S101,135.9,100.4,135.9z"/>
		<path class="st0" d="M124.7,130.1c0,0.9-0.1,1.7-0.4,2.4c-0.3,0.7-0.6,1.3-1.1,1.8c-0.5,0.5-1,0.9-1.6,1.2
			c-0.6,0.3-1.3,0.4-2.1,0.4c-0.7,0-1.4-0.1-2.1-0.4c-0.6-0.3-1.2-0.7-1.6-1.2c-0.5-0.5-0.8-1.1-1.1-1.8c-0.3-0.7-0.4-1.5-0.4-2.4
			c0-0.9,0.1-1.6,0.4-2.3c0.3-0.7,0.6-1.3,1.1-1.8c0.5-0.5,1-0.9,1.6-1.2c0.6-0.3,1.3-0.4,2.1-0.4c0.7,0,1.4,0.1,2.1,0.4
			c0.6,0.3,1.2,0.7,1.6,1.2c0.5,0.5,0.8,1.1,1.1,1.8C124.6,128.5,124.7,129.2,124.7,130.1z M122.7,130.1c0-1.2-0.3-2.2-0.8-2.9
			c-0.6-0.7-1.3-1.1-2.3-1.1c-1,0-1.7,0.4-2.3,1.1c-0.6,0.7-0.8,1.7-0.8,2.9c0,1.2,0.3,2.2,0.8,2.9s1.3,1.1,2.3,1.1
			c1,0,1.7-0.4,2.3-1.1C122.4,132.3,122.7,131.3,122.7,130.1z"/>
		<path class="st0" d="M142.9,119.6l2-0.3v16c-0.4,0.1-1,0.3-1.7,0.4c-0.7,0.1-1.5,0.2-2.4,0.2c-0.8,0-1.6-0.1-2.3-0.4
			c-0.7-0.3-1.2-0.6-1.7-1.1c-0.5-0.5-0.8-1.1-1.1-1.8c-0.3-0.7-0.4-1.5-0.4-2.4c0-0.8,0.1-1.6,0.3-2.3s0.5-1.3,1-1.8
			c0.4-0.5,0.9-0.9,1.5-1.2s1.3-0.4,2.1-0.4c0.6,0,1.2,0.1,1.7,0.3c0.5,0.2,0.8,0.3,1.1,0.5V119.6z M142.9,127
			c-0.2-0.2-0.6-0.4-1-0.6s-0.9-0.3-1.5-0.3c-0.6,0-1,0.1-1.4,0.3c-0.4,0.2-0.7,0.5-1,0.8c-0.3,0.4-0.4,0.8-0.5,1.3
			c-0.1,0.5-0.2,1-0.2,1.6c0,1.3,0.3,2.3,0.9,3c0.6,0.7,1.5,1,2.5,1c0.5,0,1,0,1.3-0.1c0.4,0,0.6-0.1,0.8-0.2V127z"/>
		<path class="st0" d="M157.6,122.7c-0.4,0-0.6-0.1-0.9-0.3c-0.2-0.2-0.4-0.5-0.4-0.9s0.1-0.7,0.4-0.9c0.2-0.2,0.5-0.3,0.9-0.3
			c0.3,0,0.6,0.1,0.9,0.3c0.2,0.2,0.4,0.5,0.4,0.9s-0.1,0.7-0.4,0.9C158.3,122.6,158,122.7,157.6,122.7z M158.6,135.6h-2v-10.9h2
			V135.6z"/>
		<path class="st0" d="M170.4,125c0.4-0.1,1-0.2,1.8-0.4s1.6-0.2,2.6-0.2c0.9,0,1.6,0.1,2.2,0.4c0.6,0.2,1,0.6,1.4,1
			c0.3,0.4,0.6,1,0.7,1.6c0.1,0.6,0.2,1.3,0.2,2v6.1h-2v-5.7c0-0.7,0-1.2-0.1-1.7c-0.1-0.5-0.2-0.9-0.5-1.2s-0.5-0.5-0.8-0.6
			c-0.4-0.1-0.8-0.2-1.3-0.2c-0.2,0-0.4,0-0.7,0c-0.2,0-0.4,0-0.6,0.1c-0.2,0-0.4,0-0.5,0.1c-0.2,0-0.3,0-0.3,0.1v9.2h-2V125z"/>
		<path class="st0" d="M197.7,134.5c-0.2,0.1-0.5,0.3-1,0.4c-0.5,0.2-1,0.3-1.7,0.3c-0.7,0-1.3-0.1-1.9-0.3c-0.6-0.2-1.1-0.5-1.5-1
			c-0.4-0.4-0.8-1-1-1.6s-0.4-1.4-0.4-2.4c0-0.8,0.1-1.5,0.4-2.2c0.2-0.7,0.6-1.2,1-1.7c0.5-0.5,1-0.9,1.7-1.1
			c0.7-0.3,1.4-0.4,2.2-0.4c0.9,0,1.7,0.1,2.4,0.2c0.7,0.1,1.2,0.3,1.7,0.4v9.7c0,1.7-0.4,2.9-1.3,3.7c-0.9,0.8-2.2,1.1-3.9,1.1
			c-0.7,0-1.3-0.1-1.9-0.2c-0.6-0.1-1.1-0.2-1.6-0.4l0.4-1.7c0.4,0.2,0.9,0.3,1.4,0.4c0.6,0.1,1.2,0.2,1.8,0.2c1.2,0,2-0.2,2.5-0.7
			c0.5-0.5,0.8-1.2,0.8-2.2V134.5z M197.6,126.4c-0.2-0.1-0.5-0.1-0.8-0.2c-0.3,0-0.8-0.1-1.3-0.1c-1,0-1.9,0.3-2.4,1
			c-0.6,0.7-0.9,1.6-0.9,2.7c0,0.6,0.1,1.2,0.2,1.6s0.4,0.8,0.7,1.1c0.3,0.3,0.6,0.5,0.9,0.7c0.4,0.1,0.7,0.2,1.1,0.2
			c0.5,0,1-0.1,1.4-0.2c0.4-0.1,0.8-0.3,1-0.5V126.4z"/>
		<path class="st0" d="M228.1,124.4c0.8,0,1.4,0.1,2,0.3c0.5,0.2,1,0.5,1.3,0.9s0.6,0.8,0.7,1.3c0.1,0.5,0.2,1.1,0.2,1.7v6.8
			c-0.2,0-0.4,0.1-0.7,0.1c-0.3,0-0.6,0.1-1,0.1c-0.4,0-0.8,0.1-1.2,0.1c-0.4,0-0.9,0.1-1.3,0.1c-0.6,0-1.2-0.1-1.7-0.2
			c-0.5-0.1-1-0.3-1.3-0.6c-0.4-0.3-0.7-0.6-0.9-1.1s-0.3-1-0.3-1.6c0-0.6,0.1-1.1,0.4-1.6c0.2-0.4,0.6-0.8,1-1.1
			c0.4-0.3,0.9-0.5,1.5-0.6c0.6-0.1,1.1-0.2,1.8-0.2c0.2,0,0.4,0,0.6,0c0.2,0,0.4,0,0.6,0.1c0.2,0,0.4,0.1,0.5,0.1
			c0.1,0,0.2,0,0.3,0.1v-0.5c0-0.3,0-0.6-0.1-1c-0.1-0.3-0.2-0.6-0.4-0.8s-0.4-0.4-0.7-0.6c-0.3-0.1-0.7-0.2-1.2-0.2
			c-0.6,0-1.2,0-1.7,0.1c-0.5,0.1-0.8,0.2-1.1,0.3l-0.2-1.6c0.3-0.1,0.7-0.2,1.3-0.3C226.8,124.4,227.4,124.4,228.1,124.4z
			 M228.3,134.2c0.5,0,0.9,0,1.2,0c0.4,0,0.7-0.1,0.9-0.1v-3.3c-0.1-0.1-0.4-0.1-0.7-0.2s-0.7-0.1-1.1-0.1c-0.3,0-0.6,0-0.9,0.1
			s-0.6,0.1-0.9,0.3c-0.3,0.1-0.5,0.3-0.7,0.5c-0.2,0.2-0.3,0.5-0.3,0.9c0,0.7,0.2,1.2,0.7,1.5C226.9,134,227.5,134.2,228.3,134.2z"
			/>
		<path class="st0" d="M244,125c0.4-0.1,1-0.2,1.8-0.4s1.6-0.2,2.6-0.2c0.9,0,1.6,0.1,2.2,0.4c0.6,0.2,1,0.6,1.4,1
			c0.3,0.4,0.6,1,0.7,1.6c0.1,0.6,0.2,1.3,0.2,2v6.1h-2v-5.7c0-0.7,0-1.2-0.1-1.7c-0.1-0.5-0.2-0.9-0.5-1.2s-0.5-0.5-0.8-0.6
			c-0.4-0.1-0.8-0.2-1.3-0.2c-0.2,0-0.4,0-0.7,0c-0.2,0-0.4,0-0.6,0.1c-0.2,0-0.4,0-0.5,0.1c-0.2,0-0.3,0-0.3,0.1v9.2h-2V125z"/>
		<path class="st0" d="M271.5,119.6l2-0.3v16c-0.4,0.1-1,0.3-1.7,0.4c-0.7,0.1-1.5,0.2-2.4,0.2c-0.8,0-1.6-0.1-2.3-0.4
			c-0.7-0.3-1.2-0.6-1.7-1.1c-0.5-0.5-0.8-1.1-1.1-1.8c-0.3-0.7-0.4-1.5-0.4-2.4c0-0.8,0.1-1.6,0.3-2.3s0.5-1.3,1-1.8
			c0.4-0.5,0.9-0.9,1.5-1.2s1.3-0.4,2.1-0.4c0.6,0,1.2,0.1,1.7,0.3c0.5,0.2,0.8,0.3,1.1,0.5V119.6z M271.5,127
			c-0.2-0.2-0.6-0.4-1-0.6s-0.9-0.3-1.5-0.3c-0.6,0-1,0.1-1.4,0.3c-0.4,0.2-0.7,0.5-1,0.8c-0.3,0.4-0.4,0.8-0.5,1.3
			c-0.1,0.5-0.2,1-0.2,1.6c0,1.3,0.3,2.3,0.9,3c0.6,0.7,1.5,1,2.5,1c0.5,0,1,0,1.3-0.1c0.4,0,0.6-0.1,0.8-0.2V127z"/>
		<path class="st0" d="M305.5,119.6l2-0.3v16c-0.4,0.1-1,0.3-1.7,0.4c-0.7,0.1-1.5,0.2-2.4,0.2c-0.8,0-1.6-0.1-2.3-0.4
			c-0.7-0.3-1.2-0.6-1.7-1.1c-0.5-0.5-0.8-1.1-1.1-1.8c-0.3-0.7-0.4-1.5-0.4-2.4c0-0.8,0.1-1.6,0.3-2.3s0.5-1.3,1-1.8
			c0.4-0.5,0.9-0.9,1.5-1.2s1.3-0.4,2.1-0.4c0.6,0,1.2,0.1,1.7,0.3c0.5,0.2,0.8,0.3,1.1,0.5V119.6z M305.5,127
			c-0.2-0.2-0.6-0.4-1-0.6s-0.9-0.3-1.5-0.3c-0.6,0-1,0.1-1.4,0.3c-0.4,0.2-0.7,0.5-1,0.8c-0.3,0.4-0.4,0.8-0.5,1.3
			c-0.1,0.5-0.2,1-0.2,1.6c0,1.3,0.3,2.3,0.9,3c0.6,0.7,1.5,1,2.5,1c0.5,0,1,0,1.3-0.1c0.4,0,0.6-0.1,0.8-0.2V127z"/>
		<path class="st0" d="M323.2,124.4c0.2,0,0.4,0,0.6,0c0.2,0,0.4,0,0.6,0.1s0.4,0.1,0.6,0.1c0.2,0,0.3,0.1,0.4,0.1l-0.3,1.7
			c-0.2-0.1-0.4-0.1-0.8-0.2c-0.4-0.1-0.8-0.1-1.4-0.1c-0.4,0-0.7,0-1.1,0.1c-0.4,0.1-0.6,0.1-0.7,0.2v9.2h-2v-10.5
			c0.5-0.2,1-0.3,1.7-0.5C321.6,124.5,322.4,124.4,323.2,124.4z"/>
		<path class="st0" d="M335.1,130.1c0-1,0.1-1.8,0.4-2.5c0.3-0.7,0.7-1.3,1.1-1.8c0.5-0.5,1-0.8,1.6-1.1c0.6-0.2,1.2-0.4,1.8-0.4
			c1.5,0,2.6,0.5,3.4,1.4s1.2,2.3,1.2,4.2c0,0.1,0,0.2,0,0.3c0,0.1,0,0.3,0,0.4h-7.5c0.1,1.1,0.4,2,1,2.6c0.6,0.6,1.5,0.9,2.7,0.9
			c0.7,0,1.3-0.1,1.7-0.2c0.5-0.1,0.8-0.2,1.1-0.3l0.3,1.6c-0.2,0.1-0.7,0.3-1.2,0.4c-0.6,0.1-1.3,0.2-2,0.2c-1,0-1.8-0.1-2.5-0.4
			c-0.7-0.3-1.3-0.7-1.7-1.2s-0.8-1.1-1-1.8C335.2,131.7,335.1,130.9,335.1,130.1z M342.6,129.1c0-0.9-0.2-1.6-0.7-2.2
			s-1.1-0.9-1.9-0.9c-0.4,0-0.8,0.1-1.2,0.3c-0.3,0.2-0.6,0.4-0.9,0.7s-0.4,0.6-0.6,1s-0.2,0.7-0.3,1.1H342.6z"/>
		<path class="st0" d="M359.4,124.4c0.8,0,1.4,0.1,2,0.3c0.5,0.2,1,0.5,1.3,0.9s0.6,0.8,0.7,1.3c0.1,0.5,0.2,1.1,0.2,1.7v6.8
			c-0.2,0-0.4,0.1-0.7,0.1c-0.3,0-0.6,0.1-1,0.1c-0.4,0-0.8,0.1-1.2,0.1c-0.4,0-0.9,0.1-1.3,0.1c-0.6,0-1.2-0.1-1.7-0.2
			c-0.5-0.1-1-0.3-1.3-0.6c-0.4-0.3-0.7-0.6-0.9-1.1s-0.3-1-0.3-1.6c0-0.6,0.1-1.1,0.4-1.6c0.2-0.4,0.6-0.8,1-1.1
			c0.4-0.3,0.9-0.5,1.5-0.6c0.6-0.1,1.1-0.2,1.8-0.2c0.2,0,0.4,0,0.6,0c0.2,0,0.4,0,0.6,0.1c0.2,0,0.4,0.1,0.5,0.1
			c0.1,0,0.2,0,0.3,0.1v-0.5c0-0.3,0-0.6-0.1-1c-0.1-0.3-0.2-0.6-0.4-0.8s-0.4-0.4-0.7-0.6c-0.3-0.1-0.7-0.2-1.2-0.2
			c-0.6,0-1.2,0-1.7,0.1c-0.5,0.1-0.8,0.2-1.1,0.3l-0.2-1.6c0.3-0.1,0.7-0.2,1.3-0.3C358.1,124.4,358.7,124.4,359.4,124.4z
			 M359.5,134.2c0.5,0,0.9,0,1.2,0c0.4,0,0.7-0.1,0.9-0.1v-3.3c-0.1-0.1-0.4-0.1-0.7-0.2s-0.7-0.1-1.1-0.1c-0.3,0-0.6,0-0.9,0.1
			s-0.6,0.1-0.9,0.3c-0.3,0.1-0.5,0.3-0.7,0.5c-0.2,0.2-0.3,0.5-0.3,0.9c0,0.7,0.2,1.2,0.7,1.5C358.2,134,358.8,134.2,359.5,134.2z"
			/>
		<path class="st0" d="M375.2,125c0.4-0.1,1-0.2,1.8-0.4c0.7-0.1,1.6-0.2,2.6-0.2c0.7,0,1.3,0.1,1.8,0.3c0.5,0.2,0.9,0.5,1.2,0.8
			c0.1-0.1,0.3-0.2,0.5-0.3s0.5-0.2,0.8-0.4c0.3-0.1,0.7-0.2,1-0.3c0.4-0.1,0.8-0.1,1.2-0.1c0.8,0,1.5,0.1,2.1,0.4s0.9,0.6,1.2,1
			c0.3,0.4,0.5,1,0.6,1.6c0.1,0.6,0.2,1.3,0.2,2v6.1h-2v-5.7c0-0.6,0-1.2-0.1-1.7s-0.2-0.8-0.4-1.2c-0.2-0.3-0.4-0.5-0.7-0.7
			c-0.3-0.1-0.7-0.2-1.2-0.2c-0.7,0-1.2,0.1-1.6,0.3c-0.4,0.2-0.7,0.3-0.9,0.5c0.1,0.4,0.2,0.8,0.3,1.2c0.1,0.4,0.1,0.9,0.1,1.4v6.1
			h-2v-5.7c0-0.6,0-1.2-0.1-1.7c-0.1-0.5-0.2-0.8-0.4-1.2c-0.2-0.3-0.4-0.5-0.7-0.7c-0.3-0.1-0.7-0.2-1.1-0.2c-0.2,0-0.4,0-0.6,0
			c-0.2,0-0.4,0-0.6,0.1c-0.2,0-0.4,0-0.6,0.1c-0.2,0-0.3,0-0.3,0.1v9.2h-2V125z"/>
		<path class="st0" d="M402.7,122.7c-0.4,0-0.6-0.1-0.9-0.3c-0.2-0.2-0.4-0.5-0.4-0.9s0.1-0.7,0.4-0.9c0.2-0.2,0.5-0.3,0.9-0.3
			c0.3,0,0.6,0.1,0.9,0.3c0.2,0.2,0.4,0.5,0.4,0.9s-0.1,0.7-0.4,0.9C403.3,122.6,403,122.7,402.7,122.7z M403.6,135.6h-2v-10.9h2
			V135.6z"/>
		<path class="st0" d="M415.4,125c0.4-0.1,1-0.2,1.8-0.4s1.6-0.2,2.6-0.2c0.9,0,1.6,0.1,2.2,0.4c0.6,0.2,1,0.6,1.4,1
			c0.3,0.4,0.6,1,0.7,1.6c0.1,0.6,0.2,1.3,0.2,2v6.1h-2v-5.7c0-0.7,0-1.2-0.1-1.7c-0.1-0.5-0.2-0.9-0.5-1.2s-0.5-0.5-0.8-0.6
			c-0.4-0.1-0.8-0.2-1.3-0.2c-0.2,0-0.4,0-0.7,0c-0.2,0-0.4,0-0.6,0.1c-0.2,0-0.4,0-0.5,0.1c-0.2,0-0.3,0-0.3,0.1v9.2h-2V125z"/>
		<path class="st0" d="M442.7,134.5c-0.2,0.1-0.5,0.3-1,0.4c-0.5,0.2-1,0.3-1.7,0.3c-0.7,0-1.3-0.1-1.9-0.3c-0.6-0.2-1.1-0.5-1.5-1
			c-0.4-0.4-0.8-1-1-1.6s-0.4-1.4-0.4-2.4c0-0.8,0.1-1.5,0.4-2.2c0.2-0.7,0.6-1.2,1-1.7c0.5-0.5,1-0.9,1.7-1.1
			c0.7-0.3,1.4-0.4,2.2-0.4c0.9,0,1.7,0.1,2.4,0.2c0.7,0.1,1.2,0.3,1.7,0.4v9.7c0,1.7-0.4,2.9-1.3,3.7c-0.9,0.8-2.2,1.1-3.9,1.1
			c-0.7,0-1.3-0.1-1.9-0.2c-0.6-0.1-1.1-0.2-1.6-0.4l0.4-1.7c0.4,0.2,0.9,0.3,1.4,0.4c0.6,0.1,1.2,0.2,1.8,0.2c1.2,0,2-0.2,2.5-0.7
			c0.5-0.5,0.8-1.2,0.8-2.2V134.5z M442.7,126.4c-0.2-0.1-0.5-0.1-0.8-0.2c-0.3,0-0.8-0.1-1.3-0.1c-1,0-1.9,0.3-2.4,1
			c-0.6,0.7-0.9,1.6-0.9,2.7c0,0.6,0.1,1.2,0.2,1.6s0.4,0.8,0.7,1.1c0.3,0.3,0.6,0.5,0.9,0.7c0.4,0.1,0.7,0.2,1.1,0.2
			c0.5,0,1-0.1,1.4-0.2c0.4-0.1,0.8-0.3,1-0.5V126.4z"/>
	</g>
	<line class="st1" x1="3.6" y1="128.8" x2="71.8" y2="128.8"/>
	<line class="st1" x1="469.8" y1="128.8" x2="538" y2="128.8"/>
</g>
</svg>
